<svg id="svg" version="1.1" xmlns="http://www.w3.org/2000/svg" xmlns:xlink="http://www.w3.org/1999/xlink" width="400" height="396.2674961119751" viewBox="0, 0, 400,396.2674961119751"><g id="svgg"><path id="path0" d="M198.308 119.767 C 184.522 122.063,178.899 140.156,188.909 150.008 C 206.357 167.178,231.010 141.889,213.924 124.348 C 210.248 120.575,204.167 118.791,198.308 119.767 M97.721 166.755 C 91.289 167.591,86.388 169.040,80.079 171.971 C 70.112 176.600,60.506 187.759,56.973 198.811 C 54.900 205.297,54.959 204.120,54.823 241.328 L 54.695 276.313 68.966 276.313 L 83.237 276.313 83.364 243.508 C 83.503 207.835,83.445 208.761,85.839 203.883 C 95.901 183.381,126.656 188.248,130.393 210.934 C 130.676 212.653,130.823 224.252,130.823 244.933 L 130.823 276.323 145.193 276.219 L 159.564 276.115 159.549 242.418 C 159.532 205.642,159.621 207.257,157.187 199.207 C 150.234 176.209,126.140 163.061,97.721 166.755 M187.116 222.597 L 187.116 276.313 201.586 276.313 L 216.056 276.313 216.056 222.597 L 216.056 168.880 201.586 168.880 L 187.116 168.880 187.116 222.597 M243.510 202.874 C 243.691 239.935,243.601 238.418,246.060 246.166 C 248.694 254.468,253.791 261.994,260.358 267.277 C 262.761 269.210,268.757 273.142,269.303 273.142 C 269.421 273.142,270.646 273.662,272.024 274.298 C 284.997 280.287,307.842 280.066,321.549 273.820 C 333.178 268.520,342.856 257.543,346.439 245.590 C 348.486 238.761,348.463 239.250,348.464 202.874 L 348.464 168.880 334.192 168.880 L 319.921 168.880 319.918 200.099 C 319.916 219.485,319.761 232.295,319.508 233.895 C 316.064 255.714,287.959 261.753,276.105 243.222 C 272.390 237.415,272.349 236.941,272.349 200.265 L 272.349 168.880 257.847 168.880 L 243.344 168.880 243.510 202.874 " stroke="none" fill="#f3f3f3" fill-rule="evenodd"></path><path id="path1" d="M0.000 198.216 L 0.000 396.432 200.000 396.432 L 400.000 396.432 400.000 198.216 L 400.000 0.000 200.000 0.000 L 0.000 0.000 0.000 198.216 M204.503 119.741 C 217.131 121.790,223.813 136.257,217.037 146.878 C 210.477 157.159,197.629 158.589,188.909 150.008 C 177.905 139.177,185.499 120.233,201.189 119.375 C 201.625 119.352,203.117 119.516,204.503 119.741 M115.821 166.734 C 138.946 169.709,153.962 183.258,158.840 205.550 C 159.470 208.429,159.535 211.829,159.549 242.418 L 159.564 276.115 145.193 276.219 L 130.823 276.323 130.823 244.933 C 130.823 224.252,130.676 212.653,130.393 210.934 C 126.656 188.248,95.901 183.381,85.839 203.883 C 83.445 208.761,83.503 207.835,83.364 243.508 L 83.237 276.313 68.966 276.313 L 54.695 276.313 54.823 241.328 C 54.959 204.120,54.900 205.297,56.973 198.811 C 59.983 189.393,67.042 180.173,75.388 174.759 C 78.676 172.625,79.492 172.192,83.647 170.370 C 91.870 166.766,104.749 165.310,115.821 166.734 M216.056 222.597 L 216.056 276.313 201.586 276.313 L 187.116 276.313 187.116 222.597 L 187.116 168.880 201.586 168.880 L 216.056 168.880 216.056 222.597 M272.349 200.265 C 272.349 236.941,272.390 237.415,276.105 243.222 C 287.959 261.753,316.064 255.714,319.508 233.895 C 319.761 232.295,319.916 219.485,319.918 200.099 L 319.921 168.880 334.192 168.880 L 348.464 168.880 348.464 202.874 C 348.463 239.250,348.486 238.761,346.439 245.590 C 342.856 257.543,333.178 268.520,321.549 273.820 C 307.842 280.066,284.997 280.287,272.024 274.298 C 270.646 273.662,269.421 273.142,269.303 273.142 C 268.757 273.142,262.761 269.210,260.358 267.277 C 253.791 261.994,248.694 254.468,246.060 246.166 C 243.601 238.418,243.691 239.935,243.510 202.874 L 243.344 168.880 257.847 168.880 L 272.349 168.880 272.349 200.265 " stroke="none" fill="#d45464" fill-rule="evenodd"></path></g></svg>